<svg height="560" viewBox="-1 0 420 420.001" width="560" xmlns="http://www.w3.org/2000/svg"><path d="M152.172 327.883c-25.438 0-46.059 20.625-46.059 46.062.004 25.438 20.625 46.055 46.063 46.055s46.058-20.621 46.058-46.059c-.03-25.425-20.636-46.03-46.062-46.058zm0 72.117c-14.39 0-26.059-11.668-26.059-26.063.004-14.39 11.668-26.054 26.063-26.054 14.39 0 26.058 11.668 26.058 26.058-.02 14.387-11.675 26.043-26.062 26.059zm181.278-72.117c-25.438 0-46.06 20.62-46.06 46.058S308.013 420 333.45 420s46.058-20.621 46.058-46.059c-.031-25.425-20.633-46.027-46.059-46.058zm0 72.117c-14.395 0-26.06-11.668-26.06-26.059 0-14.394 11.669-26.058 26.06-26.058s26.058 11.668 26.058 26.058c-.016 14.387-11.676 26.043-26.059 26.059zm74.816-318.32H94.699l-6.8-40.047C83.87 17.563 63.011-.051 38.608 0H10C4.477 0 0 4.477 0 10s4.477 10 10 10h28.605c14.645-.031 27.16 10.54 29.579 24.98l36.207 213.313c4.03 24.074 24.894 41.691 49.3 41.633h213.172c5.52 0 10-4.477 10-10 0-5.524-4.48-10-10-10H153.688c-14.641.035-27.157-10.535-29.575-24.977l-3.64-21.449h209.023c26.09.059 49.211-16.805 57.129-41.664l31.16-97.102a10 10 0 0 0-9.52-13.054zm-40.684 104.047c-5.281 16.574-20.695 27.812-38.09 27.773H117.078L98.094 101.68H394.55zm0 0"/></svg>