<svg height="512pt" viewBox="0 0 512 512" width="512pt" xmlns="http://www.w3.org/2000/svg"><path d="M150 15c0-8.285-6.715-15-15-15H15C6.715 0 0 6.715 0 15v77h150zM0 122h150v60H0zm0 90h150v60H0zm75 300c41.422 0 75-33.578 75-75V302H0v135c0 41.422 33.578 75 75 75zM60 407h30c8.29 0 15 6.71 15 15s-6.71 15-15 15H60c-8.29 0-15-6.71-15-15s6.71-15 15-15zm437-45h-77v150h77c8.285 0 15-6.715 15-15V377c0-8.285-6.715-15-15-15zm-167 0h60v150h-60zm41.984-115.918l53.032-53.035c5.859-5.86 5.859-15.356 0-21.215L340.164 86.98c-5.855-5.859-15.351-5.859-21.215 0l-53.031 53.032zm-169.707-42.426l42.426-42.426 106.063 106.063-42.422 42.426zM300 362h-1.508L240 420.488V512h60zM148.313 512H210v-61.516l-60.762 60.754c-.285.29-.636.477-.925.762zm138.82-181.066L181.066 224.867 180 225.934v82.718l64.707 64.707zM180 351.078V437c0 .406-.113.781-.117 1.184l43.61-43.61zm0 0"/></svg>