<svg xmlns="http://www.w3.org/2000/svg" width="72" height="72"><path d="M6.488 17.013c.778-4.473-9.702 8.695-5.484 21.212 4.95 14.692 24.973 14.94 30.51 11.125 1.175-1.002.285-1.827-.598-2.255-4.049-1.317-12.812-4.38-17.213-14.375-4.759-10.81.947-20.532 3.06-24.96 1.197-2.511.64-2.252-1.27-.67-4.473 3.708-8.345 12.322-9.306 16.956-.295 1.422-.839 1.135-.796.143.055-1.28.471-3.58 1.097-7.176z" fill-rule="evenodd" fill="#fff"/><path d="M41.952 37.975c4.297-3.11 4.768-10.45 2.022-11.441 0 3.134.27 4.705-1.328 6.515-7.02 7.954-17.716-2.684-10.387-10.006 5.194-5.19 13.585-1.09 14.572 3.135h.713c-.141-6.347-11.221-13.176-19.385-5.09-4.83 4.785-3.893 11.99.3 15.765 3.046 2.743 9.972 3.669 13.493 1.122m-19.178-.48c-.512-.758-1.376-1.27-2.334-3.516-5.089-11.931 4.145-23.123 13.89-23.123 4.75 0 7.285.249 11.488 3.148 9.364 6.458 9.898 19.784 1.84 29.188-10.346 12.074-27.53 12.123-41.689 8.396-3.655-.962-5.066-1.082-2.356 2.743 12.572 17.506 39.162 20.424 54.566 7.755 4.54-3.734 9.036-8.82 11.2-14.835 5.19-14.428 2.615-27.686-8.249-38.273-2.214-2.158-2.45-.773-1.104 1.157 6.033 8.639 6.5 24.47-.575 32.426-.97 1.09-1.496 1.64-.742-.127.493-1.16 1.27-2.86 1.823-4.723 4.065-13.675-1.624-26.856-13.7-32.914C26.543-5.383 5.973 17.83 18.61 35.447c.582.81 1.666 2.126 2.788 3.006 1.291 1.034 2.431.367 1.375-.958z" fill-rule="evenodd" fill="#fff"/></svg>