<svg xmlns="http://www.w3.org/2000/svg" xmlns:xlink="http://www.w3.org/1999/xlink" width="0" height="0" style="position:absolute">
	
		<symbol id="icon-belgium" viewBox="0 0 512 512">
			<path d="M170.667 423.721H8.828A8.829 8.829 0 0 1 0 414.893V97.1a8.829 8.829 0 0 1 8.828-8.828h161.839v335.449zM170.67 88.277h170.67v335.45H170.67z"></path><path d="M503.172 423.721H341.333V88.273h161.839A8.829 8.829 0 0 1 512 97.101v317.793a8.827 8.827 0 0 1-8.828 8.827z"></path>
		</symbol>
	
		<symbol id="icon-cart" viewBox="-1 0 420 420.001">
			<path d="M152.172 327.883c-25.438 0-46.059 20.625-46.059 46.062.004 25.438 20.625 46.055 46.063 46.055s46.058-20.621 46.058-46.059c-.03-25.425-20.636-46.03-46.062-46.058zm0 72.117c-14.39 0-26.059-11.668-26.059-26.063.004-14.39 11.668-26.054 26.063-26.054 14.39 0 26.058 11.668 26.058 26.058-.02 14.387-11.675 26.043-26.062 26.059zm181.278-72.117c-25.438 0-46.06 20.62-46.06 46.058S308.013 420 333.45 420s46.058-20.621 46.058-46.059c-.031-25.425-20.633-46.027-46.059-46.058zm0 72.117c-14.395 0-26.06-11.668-26.06-26.059 0-14.394 11.669-26.058 26.06-26.058s26.058 11.668 26.058 26.058c-.016 14.387-11.676 26.043-26.059 26.059zm74.816-318.32H94.699l-6.8-40.047C83.87 17.563 63.011-.051 38.608 0H10C4.477 0 0 4.477 0 10s4.477 10 10 10h28.605c14.645-.031 27.16 10.54 29.579 24.98l36.207 213.313c4.03 24.074 24.894 41.691 49.3 41.633h213.172c5.52 0 10-4.477 10-10 0-5.524-4.48-10-10-10H153.688c-14.641.035-27.157-10.535-29.575-24.977l-3.64-21.449h209.023c26.09.059 49.211-16.805 57.129-41.664l31.16-97.102a10 10 0 0 0-9.52-13.054zm-40.684 104.047c-5.281 16.574-20.695 27.812-38.09 27.773H117.078L98.094 101.68H394.55zm0 0"></path>
		</symbol>
	
		<symbol id="icon-checked" viewBox="0 0 26 26">
			<path d="M.3 14c-.2-.2-.3-.5-.3-.7s.1-.5.3-.7l1.4-1.4c.4-.4 1-.4 1.4 0l.1.1 5.5 5.9c.2.2.5.2.7 0L22.8 3.3h.1c.4-.4 1-.4 1.4 0l1.4 1.4c.4.4.4 1 0 1.4l-16 16.6c-.2.2-.4.3-.7.3-.3 0-.5-.1-.7-.3L.5 14.3.3 14z"></path>
		</symbol>
	
		<symbol id="icon-china" viewBox="0 0 512.001 512.001">
			<path d="M503.172 423.725H8.828A8.829 8.829 0 0 1 0 414.897V97.104a8.829 8.829 0 0 1 8.828-8.828h494.345a8.829 8.829 0 0 1 8.828 8.828v317.793a8.83 8.83 0 0 1-8.829 8.828z"></path><path d="M85.007 140.733l8.416 25.234 26.6.206c3.444.026 4.872 4.422 2.101 6.467l-21.398 15.801 8.023 25.362c1.038 3.284-2.7 5.999-5.502 3.997l-21.64-15.469-21.64 15.468c-2.802 2.003-6.54-.714-5.502-3.997l8.023-25.362-21.398-15.8c-2.771-2.046-1.343-6.441 2.101-6.467l26.6-.206 8.416-25.234c1.09-3.268 5.711-3.268 6.8 0zm96.592 6.218l6.035 8.23 9.739-3.046c1.261-.394 2.298 1.044 1.526 2.115l-5.962 8.281 5.906 8.321c.765 1.077-.282 2.508-1.54 2.105l-9.719-3.111-6.089 8.189c-.788 1.06-2.473.506-2.478-.814l-.045-10.205-9.67-3.261c-1.251-.423-1.246-2.195.009-2.609l9.69-3.196.114-10.204c.014-1.319 1.703-1.86 2.484-.795zm-36.742-24.53l10.145 1.102 4.328-9.241c.561-1.196 2.321-.991 2.591.302l2.086 9.988 10.126 1.26c1.311.163 1.66 1.901.513 2.558l-8.855 5.07 1.931 10.02c.25 1.298-1.295 2.166-2.274 1.279l-7.559-6.855-8.932 4.932c-1.156.639-2.461-.563-1.919-1.768l4.183-9.308-7.452-6.972c-.964-.898-.225-2.509 1.088-2.367zm16.038 98.893l-6.035 8.23-9.739-3.046c-1.261-.394-2.298 1.044-1.526 2.115l5.962 8.281-5.906 8.321c-.765 1.077.282 2.508 1.54 2.105l9.719-3.111 6.089 8.189c.788 1.06 2.473.506 2.478-.814l.045-10.205 9.67-3.261c1.252-.423 1.246-2.195-.009-2.609l-9.69-3.196-.114-10.204c-.016-1.318-1.703-1.861-2.484-.795zm36.74-23.051l-10.145 1.102-4.328-9.241c-.561-1.196-2.321-.991-2.591.302l-2.087 9.988-10.126 1.26c-1.311.163-1.66 1.901-.513 2.558l8.855 5.07-1.931 10.02c-.25 1.298 1.295 2.166 2.274 1.279l7.559-6.855 8.932 4.932c1.156.639 2.461-.563 1.919-1.768l-4.183-9.308 7.452-6.972c.967-.898.228-2.509-1.087-2.367z"></path>
		</symbol>
	
		<symbol id="icon-close" viewBox="0 0 22.88 22.88">
			<path d="M.324 1.909a1.14 1.14 0 0 1 0-1.587 1.14 1.14 0 0 1 1.587 0l9.523 9.539L20.973.322a1.12 1.12 0 0 1 1.571 0 1.112 1.112 0 0 1 0 1.587l-9.523 9.524 9.523 9.539a1.112 1.112 0 0 1 0 1.587 1.12 1.12 0 0 1-1.571 0l-9.539-9.539-9.523 9.539a1.14 1.14 0 0 1-1.587 0c-.429-.444-.429-1.159 0-1.587l9.523-9.539L.324 1.909z"></path>
		</symbol>
	
		<symbol id="icon-colors" viewBox="0 0 512 512">
			<path d="M150 15c0-8.285-6.715-15-15-15H15C6.715 0 0 6.715 0 15v77h150zM0 122h150v60H0zm0 90h150v60H0zm75 300c41.422 0 75-33.578 75-75V302H0v135c0 41.422 33.578 75 75 75zM60 407h30c8.29 0 15 6.71 15 15s-6.71 15-15 15H60c-8.29 0-15-6.71-15-15s6.71-15 15-15zm437-45h-77v150h77c8.285 0 15-6.715 15-15V377c0-8.285-6.715-15-15-15zm-167 0h60v150h-60zm41.984-115.918l53.032-53.035c5.859-5.86 5.859-15.356 0-21.215L340.164 86.98c-5.855-5.859-15.351-5.859-21.215 0l-53.031 53.032zm-169.707-42.426l42.426-42.426 106.063 106.063-42.422 42.426zM300 362h-1.508L240 420.488V512h60zM148.313 512H210v-61.516l-60.762 60.754c-.285.29-.636.477-.925.762zm138.82-181.066L181.066 224.867 180 225.934v82.718l64.707 64.707zM180 351.078V437c0 .406-.113.781-.117 1.184l43.61-43.61zm0 0"></path>
		</symbol>
	
		<symbol id="icon-figures" viewBox="0 0 512 512">
			<path d="M0 48v416h512V48H0zm480 384H32V80h448v352zM352 160c0 26.51 21.49 48 48 48s48-21.49 48-48-21.49-48-48-48-48 21.49-48 48zm96 240H64l96-256 128 160 64-48 96 144z"></path>
		</symbol>
	
		<symbol id="icon-germany" viewBox="0 0 512.001 512.001">
			<path d="M512 200.093H0V97.104a8.829 8.829 0 0 1 8.828-8.828h494.345a8.829 8.829 0 0 1 8.828 8.828L512 200.093zM503.172 423.725H8.828A8.829 8.829 0 0 1 0 414.897V311.909h512v102.988a8.828 8.828 0 0 1-8.828 8.828z"></path><path d="M0 200.091h512v111.81H0z"></path>
		</symbol>
	
		<symbol id="icon-italy" viewBox="0 0 512 512">
			<path d="M170.667 423.721H8.828A8.829 8.829 0 0 1 0 414.893V97.1a8.829 8.829 0 0 1 8.828-8.828h161.839v335.449zM170.67 88.277h170.67v335.45H170.67z"></path><path d="M503.172 423.721H341.333V88.273h161.839A8.829 8.829 0 0 1 512 97.101v317.793a8.827 8.827 0 0 1-8.828 8.827z"></path>
		</symbol>
	
		<symbol id="icon-ittle-thin-left-arrow" viewBox="0 0 381.39 381.39">
			<path d="M365.499 174.8H54.253l68.205-68.205c6.198-6.198 6.198-16.273 0-22.47-6.198-6.198-16.273-6.198-22.47 0L4.64 179.472l-.095.159-3.305 4.99-1.24 6.07v.064l1.24 6.007 3.305 4.99.095.191 95.347 95.347c6.198 6.166 16.273 6.166 22.47 0 6.198-6.166 6.198-16.304 0-22.47l-68.205-68.237h311.246c8.74 0 15.891-7.119 15.891-15.891.001-8.773-7.15-15.892-15.89-15.892z"></path>
		</symbol>
	
		<symbol id="icon-little-thin-left-arrow" viewBox="0 0 1600 220">
			<path d="M15.365 94.341l1532.175-.062-65.95-67.458c-6-6.13-6-16.094 0-22.223a15.137 15.137 0 0 1 21.73 0l92.19 94.302.1.157 3.19 4.935 1.2 6.004v.063l-1.2 5.941-3.19 4.935-.1.189-92.19 94.302a15.19 15.19 0 0 1-21.73 0c-5.99-6.098-5.99-16.125 0-22.224l65.95-67.489-1532.174.063C6.915 125.776 0 118.735 0 110.059c0-8.677 6.914-15.718 15.365-15.718z"></path>
		</symbol>
	
		<symbol id="icon-logo" viewBox="">
			<path d="M6.488 17.013c.778-4.473-9.702 8.695-5.484 21.212 4.95 14.692 24.973 14.94 30.51 11.125 1.175-1.002.285-1.827-.598-2.255-4.049-1.317-12.812-4.38-17.213-14.375-4.759-10.81.947-20.532 3.06-24.96 1.197-2.511.64-2.252-1.27-.67-4.473 3.708-8.345 12.322-9.306 16.956-.295 1.422-.839 1.135-.796.143.055-1.28.471-3.58 1.097-7.176z" fill-rule="evenodd"></path><path d="M41.952 37.975c4.297-3.11 4.768-10.45 2.022-11.441 0 3.134.27 4.705-1.328 6.515-7.02 7.954-17.716-2.684-10.387-10.006 5.194-5.19 13.585-1.09 14.572 3.135h.713c-.141-6.347-11.221-13.176-19.385-5.09-4.83 4.785-3.893 11.99.3 15.765 3.046 2.743 9.972 3.669 13.493 1.122m-19.178-.48c-.512-.758-1.376-1.27-2.334-3.516-5.089-11.931 4.145-23.123 13.89-23.123 4.75 0 7.285.249 11.488 3.148 9.364 6.458 9.898 19.784 1.84 29.188-10.346 12.074-27.53 12.123-41.689 8.396-3.655-.962-5.066-1.082-2.356 2.743 12.572 17.506 39.162 20.424 54.566 7.755 4.54-3.734 9.036-8.82 11.2-14.835 5.19-14.428 2.615-27.686-8.249-38.273-2.214-2.158-2.45-.773-1.104 1.157 6.033 8.639 6.5 24.47-.575 32.426-.97 1.09-1.496 1.64-.742-.127.493-1.16 1.27-2.86 1.823-4.723 4.065-13.675-1.624-26.856-13.7-32.914C26.543-5.383 5.973 17.83 18.61 35.447c.582.81 1.666 2.126 2.788 3.006 1.291 1.034 2.431.367 1.375-.958z" fill-rule="evenodd"></path>
		</symbol>
	
		<symbol id="icon-logo-white" viewBox="">
			<path d="M6.488 17.013c.778-4.473-9.702 8.695-5.484 21.212 4.95 14.692 24.973 14.94 30.51 11.125 1.175-1.002.285-1.827-.598-2.255-4.049-1.317-12.812-4.38-17.213-14.375-4.759-10.81.947-20.532 3.06-24.96 1.197-2.511.64-2.252-1.27-.67-4.473 3.708-8.345 12.322-9.306 16.956-.295 1.422-.839 1.135-.796.143.055-1.28.471-3.58 1.097-7.176z" fill-rule="evenodd"></path><path d="M41.952 37.975c4.297-3.11 4.768-10.45 2.022-11.441 0 3.134.27 4.705-1.328 6.515-7.02 7.954-17.716-2.684-10.387-10.006 5.194-5.19 13.585-1.09 14.572 3.135h.713c-.141-6.347-11.221-13.176-19.385-5.09-4.83 4.785-3.893 11.99.3 15.765 3.046 2.743 9.972 3.669 13.493 1.122m-19.178-.48c-.512-.758-1.376-1.27-2.334-3.516-5.089-11.931 4.145-23.123 13.89-23.123 4.75 0 7.285.249 11.488 3.148 9.364 6.458 9.898 19.784 1.84 29.188-10.346 12.074-27.53 12.123-41.689 8.396-3.655-.962-5.066-1.082-2.356 2.743 12.572 17.506 39.162 20.424 54.566 7.755 4.54-3.734 9.036-8.82 11.2-14.835 5.19-14.428 2.615-27.686-8.249-38.273-2.214-2.158-2.45-.773-1.104 1.157 6.033 8.639 6.5 24.47-.575 32.426-.97 1.09-1.496 1.64-.742-.127.493-1.16 1.27-2.86 1.823-4.723 4.065-13.675-1.624-26.856-13.7-32.914C26.543-5.383 5.973 17.83 18.61 35.447c.582.81 1.666 2.126 2.788 3.006 1.291 1.034 2.431.367 1.375-.958z" fill-rule="evenodd"></path>
		</symbol>
	
		<symbol id="icon-materials" viewBox="0 0 54.849 54.849">
			<path d="M54.497 39.614l-10.363-4.49-14.917 5.968c-.537.214-1.165.319-1.793.319-.627 0-1.254-.104-1.79-.318l-14.921-5.968L.351 39.614c-.472.203-.467.524.01.716L26.56 50.81c.477.191 1.251.191 1.729 0l26.199-10.48c.476-.191.481-.513.009-.716z"></path><path d="M54.497 27.512l-10.364-4.491-14.916 5.966c-.536.215-1.165.321-1.792.321a4.898 4.898 0 0 1-1.793-.321l-14.918-5.966L.351 27.512c-.472.203-.467.523.01.716L26.56 38.706c.477.19 1.251.19 1.729 0l26.199-10.479c.476-.191.481-.511.009-.715z"></path><path d="M.361 16.125l13.662 5.465 12.537 5.015c.477.191 1.251.191 1.729 0l12.541-5.016 13.658-5.463c.477-.191.48-.511.01-.716L28.277 4.048c-.471-.204-1.236-.204-1.708 0L.351 15.41c-.472.204-.467.525.01.715z"></path>
		</symbol>
	
		<symbol id="icon-prices" viewBox="0 0 510.127 510.127">
			<path d="M34.786 428.963h81.158v69.572c0 3.385 1.083 6.156 3.262 8.322 2.173 2.18 4.951 3.27 8.335 3.27h60.502c3.14 0 5.857-1.09 8.152-3.27 2.295-2.166 3.439-4.938 3.439-8.322v-69.572h182.964c3.377 0 6.156-1.076 8.334-3.256 2.18-2.178 3.262-4.951 3.262-8.336v-46.377c0-3.365-1.082-6.156-3.262-8.322-2.172-2.18-4.957-3.27-8.334-3.27h-182.97v-42.754h123.184c48.305 0 87.73-14.719 118.293-44.199 30.551-29.449 45.834-67.49 45.834-114.125 0-46.604-15.283-84.646-45.834-114.125C410.548 14.749 371.116 0 322.812 0H127.535c-3.385 0-6.157 1.089-8.335 3.256-2.173 2.179-3.262 4.969-3.262 8.335v227.896H34.786c-3.384 0-6.157 1.145-8.335 3.439-2.172 2.295-3.262 5.012-3.262 8.151v53.978c0 3.385 1.083 6.158 3.262 8.336 2.179 2.18 4.945 3.256 8.335 3.256h81.158v42.754H34.786c-3.384 0-6.157 1.09-8.335 3.27-2.172 2.166-3.262 4.951-3.262 8.322v46.377c0 3.385 1.083 6.158 3.262 8.336 2.178 2.181 4.95 3.257 8.335 3.257zM199.628 77.179h115.938c25.6 0 46.248 7.485 61.953 22.46 15.697 14.976 23.549 34.547 23.549 58.691 0 24.156-7.852 43.733-23.549 58.691-15.705 14.988-36.354 22.473-61.953 22.473H199.628V77.179z"></path>
		</symbol>
	
		<symbol id="icon-right-arrow" viewBox="0 0 129 129">
			<path d="M40.4 121.3c-.8.8-1.8 1.2-2.9 1.2s-2.1-.4-2.9-1.2c-1.6-1.6-1.6-4.2 0-5.8l51-51-51-51c-1.6-1.6-1.6-4.2 0-5.8 1.6-1.6 4.2-1.6 5.8 0l53.9 53.9c1.6 1.6 1.6 4.2 0 5.8l-53.9 53.9z"></path>
		</symbol>
	
		<symbol id="icon-russia" viewBox="0 0 512 512">
			<path d="M0 85.33v341.332h512V85.33z"></path><path d="M0 85.333h512V426.67H0z"></path><path d="M0 85.333h512v113.775H0zM0 312.884h512v113.775H0z"></path>
		</symbol>
	
		<symbol id="icon-search" viewBox="0 0 451 451">
			<path d="M447.05 428l-109.6-109.6c29.4-33.8 47.2-77.9 47.2-126.1C384.65 86.2 298.35 0 192.35 0 86.25 0 .05 86.3.05 192.3s86.3 192.3 192.3 192.3c48.2 0 92.3-17.8 126.1-47.2L428.05 447c2.6 2.6 6.1 4 9.5 4s6.9-1.3 9.5-4c5.2-5.2 5.2-13.8 0-19zM26.95 192.3c0-91.2 74.2-165.3 165.3-165.3 91.2 0 165.3 74.2 165.3 165.3s-74.1 165.4-165.3 165.4c-91.1 0-165.3-74.2-165.3-165.4z"></path>
		</symbol>
	
</svg>
