<svg height="512pt" viewBox="0 0 512 512" width="512pt" xmlns="http://www.w3.org/2000/svg"><path d="m150 15c0-8.285156-6.714844-15-15-15h-120c-8.285156 0-15 6.714844-15 15v77h150zm0 0"/><path d="m0 122h150v60h-150zm0 0"/><path d="m0 212h150v60h-150zm0 0"/><path d="m75 512c41.421875 0 75-33.578125 75-75v-135h-150v135c0 41.421875 33.578125 75 75 75zm-15-105h30c8.289062 0 15 6.710938 15 15s-6.710938 15-15 15h-30c-8.289062 0-15-6.710938-15-15s6.710938-15 15-15zm0 0"/><path d="m497 362h-77v150h77c8.285156 0 15-6.714844 15-15v-120c0-8.285156-6.714844-15-15-15zm0 0"/><path d="m330 362h60v150h-60zm0 0"/><path d="m371.984375 246.082031 53.03125-53.035156c5.859375-5.859375 5.859375-15.355469 0-21.214844l-84.851563-84.851562c-5.855468-5.859375-15.351562-5.859375-21.214843 0l-53.03125 53.03125zm0 0"/><path d="m202.277344 203.65625 42.425781-42.425781 106.0625 106.0625-42.421875 42.425781zm0 0"/><path d="m300 362h-1.507812l-58.492188 58.488281v91.511719h60zm0 0"/><path d="m148.3125 512h61.6875v-61.515625l-60.761719 60.753906c-.285156.289063-.636719.476563-.925781.761719zm0 0"/><path d="m287.132812 330.933594-106.066406-106.066406-1.066406 1.066406v82.71875l64.707031 64.707031zm0 0"/><path d="m180 351.078125v85.921875c0 .40625-.113281.78125-.117188 1.183594l43.609376-43.609375zm0 0"/></svg>