<?xml version="1.0"?>
<svg version="1.1" xmlns="http://www.w3.org/2000/svg" xmlns:xlink="http://www.w3.org/1999/xlink" width="72" height="72">
    <desc iVinci="yes" version="4.6" gridStep="20" showGrid="no" snapToGrid="no" codePlatform="0"/>
    <g id="Layer1" name="Layer 1" opacity="1">
        <g id="Shape1">
            <desc shapeID="1" type="0" basicInfo-basicType="0" basicInfo-roundedRectRadius="12" basicInfo-polygonSides="6" basicInfo-starPoints="5" bounding="rect(-16.0391,-22.7703,32.0783,45.5406)" text="" font-familyName="" font-pixelSize="20" font-bold="0" font-underline="0" font-alignment="1" strokeStyle="0" markerStart="0" markerEnd="0" shadowEnabled="0" shadowOffsetX="0" shadowOffsetY="2" shadowBlur="4" shadowOpacity="160" blurEnabled="0" blurRadius="4" transform="matrix(1,0,0,1,16.0391,28.6562)" pers-center="0,0" pers-size="0,0" pers-start="0,0" pers-end="0,0" locked="0" mesh="" flag=""/>
            <path id="shapePath1" d="M6.48845,17.0127 C7.26646,12.5397 -3.21355,25.7077 1.00444,38.2247 C5.95445,52.9167 25.9765,53.1657 31.5145,49.3497 C32.6894,48.3477 31.7995,47.5227 30.9155,47.0947 C26.8674,45.7777 18.1044,42.7147 13.7034,32.7197 C8.94444,21.9097 14.6504,12.1877 16.7624,7.75972 C17.9605,5.2487 17.4025,5.5077 15.4924,7.0897 C11.0195,10.7977 7.14845,19.4117 6.18745,24.0457 C5.89244,25.4677 5.34846,25.1807 5.39146,24.1887 C5.44646,22.9087 5.86244,20.6087 6.48845,17.0127 Z" style="stroke:none;fill-rule:evenodd;fill:#888f8a;fill-opacity:1;"/>
        </g>
        <g id="Shape2">
            <desc shapeID="2" type="0" basicInfo-basicType="0" basicInfo-roundedRectRadius="12" basicInfo-polygonSides="6" basicInfo-starPoints="5" bounding="rect(-34.8803,-33.7843,69.7606,67.5685)" text="" font-familyName="" font-pixelSize="20" font-bold="0" font-underline="0" font-alignment="1" strokeStyle="0" markerStart="0" markerEnd="0" shadowEnabled="0" shadowOffsetX="0" shadowOffsetY="2" shadowBlur="4" shadowOpacity="160" blurEnabled="0" blurRadius="4" transform="matrix(1,0,0,1,37.0816,36.0928)" pers-center="0,0" pers-size="0,0" pers-start="0,0" pers-end="0,0" locked="0" mesh="" flag=""/>
            <path id="shapePath2" d="M41.9515,37.9747 C46.2494,34.8647 46.7204,27.5257 43.9735,26.5337 C43.9735,29.6677 44.2445,31.2387 42.6464,33.0487 C35.6264,41.0027 24.9304,30.3647 32.2594,23.0427 C37.4534,17.8527 45.8444,21.9527 46.8305,26.1777 L47.5444,26.1777 C47.4025,19.8307 36.3225,13.0017 28.1585,21.0887 C23.3295,25.8727 24.2655,33.0787 28.4585,36.8527 C31.5054,39.5957 38.4314,40.5217 41.9515,37.9747 M22.7735,37.4947 C22.2615,36.7367 21.3985,36.2257 20.4404,33.9787 C15.3515,22.0477 24.5855,10.8557 34.3305,10.8557 C39.0795,10.8557 41.6155,11.1047 45.8184,14.0037 C55.1824,20.4617 55.7161,33.7883 47.6585,43.1917 C37.3125,55.2657 20.1285,55.3147 5.96944,51.5877 C2.31444,50.6257 0.903458,50.5057 3.61345,54.3307 C16.1854,71.8367 42.7754,74.7547 58.1785,62.0857 C62.7185,58.3517 67.2154,53.2657 69.3794,47.2507 C74.5694,32.8227 71.9945,19.5647 61.1304,8.97771 C58.9165,6.81972 58.6795,8.2047 60.0264,10.1347 C66.0595,18.7737 66.5254,34.6057 59.4515,42.5607 C58.4815,43.6517 57.9545,44.2017 58.7085,42.4337 C59.2024,41.2737 59.9784,39.5747 60.5325,37.7107 C64.5965,24.0357 58.9075,10.8547 46.8324,4.79671 C26.5434,-5.38328 5.97346,17.8307 18.6105,35.4477 C19.1915,36.2567 20.2764,37.5727 21.3985,38.4527 C22.6894,39.4867 23.8295,38.8197 22.7735,37.4947 Z" style="stroke:none;fill-rule:evenodd;fill:#bd1e6a;fill-opacity:1;"/>
        </g>
    </g>
</svg>
